{"title":"Strikeforce Heavy Artillery PPV HDTV XviD-XS","uid":5568647,"size":1173811337,"categoryP":"video","categoryS":"tv_shows","magnet":"?xt=urn:btih:434c54b82949dd7281d3908287475b1bbed727fb&amp;dn=Strikeforce+Heavy+Artillery+PPV+HDTV+XviD-XS&amp;tr=udp%3A%2F%2Ftracker.openbittorrent.com%3A80&amp;tr=udp%3A%2F%2Fopen.demonii.com%3A1337&amp;tr=udp%3A%2F%2Ftracker.coppersurfer.tk%3A6969&amp;tr=udp%3A%2F%2Fexodus.desync.com%3A6969","seeders":0,"leechers":1,"uploader":"YoCkNeR-BeNzO","files":2,"time":1274073024,"description":"Heavyweight Championship bout: Alistair Overeem (c) vs. Brett Rogers\n\nHeavyweight bout: Andrei Arlovski vs. Antonio Silva\n\nMiddleweight bout: Ronaldo Souza vs. Joey VillaseÃƒÂ±or\n\nLight Heavyweight bout: Roger Gracie vs. Kevin Randleman\n\nLight Heavyweight bout: Antwain Britt vs. Rafael Cavalcante\n========================================================\nVideo\nID : 0\nFormat : MPEG-4 Visual\nFormat profile : Advanced Simple@L5\nFormat settings, BVOP : Yes\nFormat settings, QPel : No\nFormat settings, GMC : No warppoints\nFormat settings, Matrix : Default (MPEG)\nCodec ID : XVID\nCodec ID/Hint : XviD\nDuration : 2h 7mn\nBit rate : 1 080 Kbps\nWidth : 640 pixels\nHeight : 360 pixels\nDisplay aspect ratio : 16:9\nFrame rate : 29.970 fps\nResolution : 8 bits\nColorimetry : 4:2:0\nScan type : Progressive\nBits/(Pixel*Frame) : 0.156\nStream size : 986 MiB (88%)\nWriting library : XviD 1.2.1 (UTC 2008-12-04)\n\nAudio\nID : 1\nFormat : MPEG Audio\nFormat version : Version 1\nFormat profile : Layer 3\nCodec ID : 55\nCodec ID/Hint : MP3\nDuration : 2h 7mn\nBit rate mode : Constant\nBit rate : 128 Kbps\nChannel(s) : 2 channels\nSampling rate : 48.0 KHz\nStream size : 117 MiB (10%)\nAlignment : Aligned on interleaves\nInterleave, duration : 24 ms (0.72 video frame)\nInterleave, preload duration : 24 ms\n========================================================\n-----------------\ngreetz to safcuk009\n-----------------","torrent":{"xt":"urn:btih:434c54b82949dd7281d3908287475b1bbed727fb","amp;dn":"Strikeforce+Heavy+Artillery+PPV+HDTV+XviD-XS","amp;tr":["udp%3A%2F%2Ftracker.openbittorrent.com%3A80","udp%3A%2F%2Fopen.demonii.com%3A1337","udp%3A%2F%2Ftracker.coppersurfer.tk%3A6969","udp%3A%2F%2Fexodus.desync.com%3A6969"],"infoHash":"434c54b82949dd7281d3908287475b1bbed727fb","infoHashBuffer":{"type":"Buffer","data":[67,76,84,184,41,73,221,114,129,211,144,130,135,71,91,27,190,215,39,251]},"announce":[],"urlList":[]}}